<mxfile host="Electron" modified="2023-12-18T13:15:04.137Z" agent="Mozilla/5.0 (Windows NT 10.0; Win64; x64) AppleWebKit/537.36 (KHTML, like Gecko) draw.io/22.1.2 Chrome/114.0.5735.289 Electron/25.9.4 Safari/537.36" etag="Fb5AHCt05ODl5rEcunko" version="22.1.2" type="device">
  <diagram name="Page-1" id="cozqK0H1Bt57T3nkQST3">
    <mxGraphModel dx="956" dy="557" grid="1" gridSize="10" guides="1" tooltips="1" connect="1" arrows="1" fold="1" page="1" pageScale="1" pageWidth="2339" pageHeight="3300" math="0" shadow="0">
      <root>
        <mxCell id="0" />
        <mxCell id="1" parent="0" />
        <mxCell id="wR6nkXGdFgj6mUINcw_v-4" value="" style="image;sketch=0;aspect=fixed;html=1;points=[];align=center;fontSize=12;image=img/lib/mscae/VirtualMachineWindows.svg;" vertex="1" parent="1">
          <mxGeometry x="250" y="560" width="93.48" height="86" as="geometry" />
        </mxCell>
        <mxCell id="wR6nkXGdFgj6mUINcw_v-5" value="" style="shadow=0;dashed=0;html=1;strokeColor=none;fillColor=#4495D1;labelPosition=center;verticalLabelPosition=bottom;verticalAlign=top;align=center;outlineConnect=0;shape=mxgraph.veeam.vm_linux;" vertex="1" parent="1">
          <mxGeometry x="460" y="550" width="120" height="120.2" as="geometry" />
        </mxCell>
        <mxCell id="wR6nkXGdFgj6mUINcw_v-6" value="" style="shadow=0;dashed=0;html=1;strokeColor=none;fillColor=#4495D1;labelPosition=center;verticalLabelPosition=bottom;verticalAlign=top;align=center;outlineConnect=0;shape=mxgraph.veeam.vm_linux;" vertex="1" parent="1">
          <mxGeometry x="690" y="510" width="57.2" height="55.2" as="geometry" />
        </mxCell>
        <mxCell id="wR6nkXGdFgj6mUINcw_v-7" value="" style="shadow=0;dashed=0;html=1;strokeColor=none;fillColor=#4495D1;labelPosition=center;verticalLabelPosition=bottom;verticalAlign=top;align=center;outlineConnect=0;shape=mxgraph.veeam.vm_linux;" vertex="1" parent="1">
          <mxGeometry x="690" y="660" width="57.2" height="55.2" as="geometry" />
        </mxCell>
        <mxCell id="wR6nkXGdFgj6mUINcw_v-10" value="" style="endArrow=classic;html=1;rounded=0;entryX=0.505;entryY=-0.033;entryDx=0;entryDy=0;entryPerimeter=0;" edge="1" parent="1" target="wR6nkXGdFgj6mUINcw_v-4">
          <mxGeometry width="50" height="50" relative="1" as="geometry">
            <mxPoint x="510" y="550" as="sourcePoint" />
            <mxPoint x="270" y="430" as="targetPoint" />
            <Array as="points">
              <mxPoint x="510" y="430" />
              <mxPoint x="300" y="430" />
            </Array>
          </mxGeometry>
        </mxCell>
        <mxCell id="wR6nkXGdFgj6mUINcw_v-11" value="" style="rounded=0;whiteSpace=wrap;html=1;fillColor=none;" vertex="1" parent="1">
          <mxGeometry x="420" y="443" width="400" height="337" as="geometry" />
        </mxCell>
        <mxCell id="wR6nkXGdFgj6mUINcw_v-13" value="Vagrant&amp;nbsp;" style="text;strokeColor=none;fillColor=none;html=1;fontSize=24;fontStyle=1;verticalAlign=middle;align=center;" vertex="1" parent="1">
          <mxGeometry x="570" y="740" width="100" height="40" as="geometry" />
        </mxCell>
        <mxCell id="wR6nkXGdFgj6mUINcw_v-14" value="192.168.50.0/24" style="text;strokeColor=none;align=center;fillColor=none;html=1;verticalAlign=middle;whiteSpace=wrap;rounded=0;" vertex="1" parent="1">
          <mxGeometry x="740" y="450" width="60" height="30" as="geometry" />
        </mxCell>
        <mxCell id="wR6nkXGdFgj6mUINcw_v-15" value=".4" style="text;strokeColor=none;align=center;fillColor=none;html=1;verticalAlign=middle;whiteSpace=wrap;rounded=0;" vertex="1" parent="1">
          <mxGeometry x="540" y="580" width="60" height="30" as="geometry" />
        </mxCell>
        <mxCell id="wR6nkXGdFgj6mUINcw_v-16" value=".6" style="text;strokeColor=none;align=center;fillColor=none;html=1;verticalAlign=middle;whiteSpace=wrap;rounded=0;" vertex="1" parent="1">
          <mxGeometry x="650" y="650" width="60" height="30" as="geometry" />
        </mxCell>
        <mxCell id="wR6nkXGdFgj6mUINcw_v-17" value=".5" style="text;strokeColor=none;align=center;fillColor=none;html=1;verticalAlign=middle;whiteSpace=wrap;rounded=0;" vertex="1" parent="1">
          <mxGeometry x="650" y="535.2" width="60" height="30" as="geometry" />
        </mxCell>
        <mxCell id="wR6nkXGdFgj6mUINcw_v-20" value="&lt;font style=&quot;font-size: 19px;&quot;&gt;Host&lt;/font&gt;" style="text;strokeColor=none;fillColor=none;html=1;fontSize=24;fontStyle=1;verticalAlign=middle;align=center;" vertex="1" parent="1">
          <mxGeometry x="246.74" y="646" width="100" height="40" as="geometry" />
        </mxCell>
        <mxCell id="wR6nkXGdFgj6mUINcw_v-21" value="&lt;font style=&quot;font-size: 18px;&quot;&gt;port forwarding&lt;br&gt;3000&lt;br&gt;9090&lt;br&gt;9100&lt;/font&gt;" style="text;strokeColor=none;align=center;fillColor=none;html=1;verticalAlign=middle;whiteSpace=wrap;rounded=0;" vertex="1" parent="1">
          <mxGeometry x="250" y="300" width="290" height="150" as="geometry" />
        </mxCell>
        <mxCell id="wR6nkXGdFgj6mUINcw_v-22" value="Prometheus&lt;br&gt;Node_Exporter&lt;br&gt;Grafana server" style="text;strokeColor=none;align=center;fillColor=none;html=1;verticalAlign=middle;whiteSpace=wrap;rounded=0;" vertex="1" parent="1">
          <mxGeometry x="460" y="680" width="100" height="30" as="geometry" />
        </mxCell>
        <mxCell id="wR6nkXGdFgj6mUINcw_v-23" value="Node_Exporter" style="text;strokeColor=none;align=center;fillColor=none;html=1;verticalAlign=middle;whiteSpace=wrap;rounded=0;" vertex="1" parent="1">
          <mxGeometry x="687.2" y="715.2" width="60" height="30" as="geometry" />
        </mxCell>
        <mxCell id="wR6nkXGdFgj6mUINcw_v-24" value="Node_Exporter" style="text;strokeColor=none;align=center;fillColor=none;html=1;verticalAlign=middle;whiteSpace=wrap;rounded=0;" vertex="1" parent="1">
          <mxGeometry x="690" y="570" width="60" height="30" as="geometry" />
        </mxCell>
        <mxCell id="wR6nkXGdFgj6mUINcw_v-25" value="" style="shape=flexArrow;endArrow=classic;html=1;rounded=0;fillColor=#1ba1e2;strokeColor=#006EAF;" edge="1" parent="1">
          <mxGeometry width="50" height="50" relative="1" as="geometry">
            <mxPoint x="360" y="594.92" as="sourcePoint" />
            <mxPoint x="420.0000000000001" y="594.8046153846153" as="targetPoint" />
          </mxGeometry>
        </mxCell>
        <mxCell id="wR6nkXGdFgj6mUINcw_v-26" value="&lt;font style=&quot;font-size: 8px;&quot;&gt;Vagrant up&lt;/font&gt;" style="text;strokeColor=none;align=center;fillColor=none;html=1;verticalAlign=middle;whiteSpace=wrap;rounded=0;" vertex="1" parent="1">
          <mxGeometry x="360" y="580" width="60" height="30" as="geometry" />
        </mxCell>
      </root>
    </mxGraphModel>
  </diagram>
</mxfile>
